<mxfile host="app.diagrams.net" agent="Mozilla/5.0 (Windows NT 10.0; Win64; x64) AppleWebKit/537.36 (KHTML, like Gecko) Chrome/126.0.0.0 YaBrowser/24.7.0.0 Safari/537.36" version="24.8.2">
  <diagram name="Страница — 1" id="unyfpA8CnhZmOGq-8SYW">
    <mxGraphModel dx="2132" dy="1326" grid="1" gridSize="10" guides="1" tooltips="1" connect="1" arrows="1" fold="1" page="1" pageScale="1" pageWidth="827" pageHeight="1169" math="0" shadow="0">
      <root>
        <mxCell id="0" />
        <mxCell id="1" parent="0" />
        <mxCell id="Bf2zq5DTblu7-HSpNJ3P-2" value="ВХОДНЫЕ ДАННЫЕ" style="rounded=0;whiteSpace=wrap;html=1;fontSize=14;fontFamily=Times New Roman;labelPosition=center;verticalLabelPosition=top;align=left;verticalAlign=bottom;fillColor=#dae8fc;strokeColor=#6c8ebf;" parent="1" vertex="1">
          <mxGeometry x="550" y="60" width="170" height="270" as="geometry" />
        </mxCell>
        <mxCell id="Bf2zq5DTblu7-HSpNJ3P-10" value="" style="group" parent="1" vertex="1" connectable="0">
          <mxGeometry x="560" y="270" width="150" height="50" as="geometry" />
        </mxCell>
        <mxCell id="Bf2zq5DTblu7-HSpNJ3P-11" value="Параметры управления" style="rounded=0;whiteSpace=wrap;html=1;fontSize=14;fontFamily=Times New Roman;labelPosition=center;verticalLabelPosition=top;align=center;verticalAlign=bottom;fillColor=#d5e8d4;strokeColor=#82b366;" parent="Bf2zq5DTblu7-HSpNJ3P-10" vertex="1">
          <mxGeometry width="150" height="50" as="geometry" />
        </mxCell>
        <mxCell id="Bf2zq5DTblu7-HSpNJ3P-12" value="&lt;font style=&quot;font-size: 14px;&quot; face=&quot;Times New Roman&quot;&gt;- Коэффициенты&lt;/font&gt;&lt;div style=&quot;font-size: 14px;&quot;&gt;&lt;span style=&quot;font-family: &amp;quot;Times New Roman&amp;quot;; background-color: initial;&quot;&gt;- Уставки&lt;/span&gt;&lt;/div&gt;&lt;div style=&quot;font-size: 14px;&quot;&gt;&lt;span style=&quot;font-family: &amp;quot;Times New Roman&amp;quot;; background-color: initial;&quot;&gt;- Режим работы&lt;/span&gt;&lt;/div&gt;" style="text;html=1;align=left;verticalAlign=middle;whiteSpace=wrap;rounded=0;fontSize=14;" parent="Bf2zq5DTblu7-HSpNJ3P-10" vertex="1">
          <mxGeometry width="145.1612903225806" height="50" as="geometry" />
        </mxCell>
        <mxCell id="8oVmEbJe3jED5iUStoZP-1" value="" style="group" vertex="1" connectable="0" parent="1">
          <mxGeometry x="560" y="180" width="150" height="50" as="geometry" />
        </mxCell>
        <mxCell id="8oVmEbJe3jED5iUStoZP-2" value="Параметры системы" style="rounded=0;whiteSpace=wrap;html=1;fontSize=14;fontFamily=Times New Roman;labelPosition=center;verticalLabelPosition=top;align=center;verticalAlign=bottom;fillColor=#d5e8d4;strokeColor=#82b366;" vertex="1" parent="8oVmEbJe3jED5iUStoZP-1">
          <mxGeometry width="150" height="50" as="geometry" />
        </mxCell>
        <mxCell id="8oVmEbJe3jED5iUStoZP-3" value="&lt;font style=&quot;font-size: 14px;&quot; face=&quot;Times New Roman&quot;&gt;- Геометрические&lt;/font&gt;&lt;div style=&quot;font-size: 14px;&quot;&gt;&lt;span style=&quot;font-family: &amp;quot;Times New Roman&amp;quot;; background-color: initial;&quot;&gt;- Физические&lt;/span&gt;&lt;/div&gt;&lt;div style=&quot;font-size: 14px;&quot;&gt;&lt;span style=&quot;font-family: &amp;quot;Times New Roman&amp;quot;; background-color: initial;&quot;&gt;- Термодинамические&lt;/span&gt;&lt;/div&gt;" style="text;html=1;align=left;verticalAlign=middle;whiteSpace=wrap;rounded=0;fontSize=14;" vertex="1" parent="8oVmEbJe3jED5iUStoZP-1">
          <mxGeometry width="145.1612903225806" height="50" as="geometry" />
        </mxCell>
        <mxCell id="8oVmEbJe3jED5iUStoZP-4" value="" style="group" vertex="1" connectable="0" parent="1">
          <mxGeometry x="560" y="80" width="150" height="70" as="geometry" />
        </mxCell>
        <mxCell id="8oVmEbJe3jED5iUStoZP-5" value="Начальные условия" style="rounded=0;whiteSpace=wrap;html=1;fontSize=14;fontFamily=Times New Roman;labelPosition=center;verticalLabelPosition=top;align=center;verticalAlign=bottom;fillColor=#d5e8d4;strokeColor=#82b366;" vertex="1" parent="8oVmEbJe3jED5iUStoZP-4">
          <mxGeometry width="150" height="70" as="geometry" />
        </mxCell>
        <mxCell id="8oVmEbJe3jED5iUStoZP-6" value="&lt;font style=&quot;font-size: 14px;&quot; face=&quot;Times New Roman&quot;&gt;- Положение&lt;/font&gt;&lt;div style=&quot;font-size: 14px;&quot;&gt;&lt;span style=&quot;font-family: &amp;quot;Times New Roman&amp;quot;; background-color: initial;&quot;&gt;- Скорость&lt;/span&gt;&lt;/div&gt;&lt;div style=&quot;font-size: 14px;&quot;&gt;&lt;span style=&quot;font-family: &amp;quot;Times New Roman&amp;quot;; background-color: initial;&quot;&gt;- Давления&lt;/span&gt;&lt;/div&gt;&lt;div style=&quot;font-size: 14px;&quot;&gt;&lt;span style=&quot;font-family: &amp;quot;Times New Roman&amp;quot;; background-color: initial;&quot;&gt;- Температуры&lt;/span&gt;&lt;/div&gt;" style="text;html=1;align=left;verticalAlign=middle;whiteSpace=wrap;rounded=0;fontSize=14;" vertex="1" parent="8oVmEbJe3jED5iUStoZP-4">
          <mxGeometry width="145.1612903225806" height="70" as="geometry" />
        </mxCell>
        <mxCell id="8oVmEbJe3jED5iUStoZP-55" style="edgeStyle=orthogonalEdgeStyle;rounded=1;orthogonalLoop=1;jettySize=auto;html=1;exitX=0.5;exitY=1;exitDx=0;exitDy=0;entryX=0.5;entryY=0;entryDx=0;entryDy=0;fontFamily=Helvetica;fontSize=12;fontColor=default;curved=0;" edge="1" parent="1" source="8oVmEbJe3jED5iUStoZP-8" target="8oVmEbJe3jED5iUStoZP-36">
          <mxGeometry relative="1" as="geometry" />
        </mxCell>
        <mxCell id="8oVmEbJe3jED5iUStoZP-8" value="МОДЕЛИРОВАНИЕ ДИНАМИКИ" style="rounded=0;whiteSpace=wrap;html=1;fontSize=14;fontFamily=Times New Roman;labelPosition=center;verticalLabelPosition=top;align=left;verticalAlign=bottom;fillColor=#e1d5e7;strokeColor=#9673a6;" vertex="1" parent="1">
          <mxGeometry x="160" y="60" width="370" height="360" as="geometry" />
        </mxCell>
        <mxCell id="8oVmEbJe3jED5iUStoZP-9" value="Система управления" style="rounded=0;whiteSpace=wrap;html=1;pointerEvents=0;strokeColor=#d79b00;align=center;verticalAlign=bottom;fontFamily=Times New Roman;fontSize=14;fillColor=#ffe6cc;labelPosition=center;verticalLabelPosition=top;" vertex="1" parent="1">
          <mxGeometry x="170" y="90" width="150" height="140" as="geometry" />
        </mxCell>
        <mxCell id="8oVmEbJe3jED5iUStoZP-12" style="edgeStyle=orthogonalEdgeStyle;rounded=0;orthogonalLoop=1;jettySize=auto;html=1;exitX=0.5;exitY=1;exitDx=0;exitDy=0;entryX=0.5;entryY=0;entryDx=0;entryDy=0;fontFamily=Helvetica;fontSize=12;fontColor=default;" edge="1" parent="1" source="8oVmEbJe3jED5iUStoZP-10" target="8oVmEbJe3jED5iUStoZP-11">
          <mxGeometry relative="1" as="geometry" />
        </mxCell>
        <mxCell id="8oVmEbJe3jED5iUStoZP-10" value="Конкретный алгоритм" style="rounded=0;whiteSpace=wrap;html=1;pointerEvents=0;strokeColor=#82b366;align=center;verticalAlign=middle;fontFamily=Times New Roman;fontSize=14;fontColor=default;fillColor=#d5e8d4;gradientColor=none;" vertex="1" parent="1">
          <mxGeometry x="185" y="100" width="120" height="50" as="geometry" />
        </mxCell>
        <mxCell id="8oVmEbJe3jED5iUStoZP-11" value="Состояния распределителей" style="rounded=0;whiteSpace=wrap;html=1;pointerEvents=0;strokeColor=#82b366;align=center;verticalAlign=middle;fontFamily=Times New Roman;fontSize=14;fontColor=default;fillColor=#d5e8d4;gradientColor=none;" vertex="1" parent="1">
          <mxGeometry x="185" y="180" width="120" height="40" as="geometry" />
        </mxCell>
        <mxCell id="8oVmEbJe3jED5iUStoZP-13" value="Пневмоцилиндр" style="rounded=0;whiteSpace=wrap;html=1;pointerEvents=0;strokeColor=#d79b00;align=center;verticalAlign=bottom;fontFamily=Times New Roman;fontSize=14;fillColor=#ffe6cc;labelPosition=center;verticalLabelPosition=top;" vertex="1" parent="1">
          <mxGeometry x="350" y="90" width="170" height="180" as="geometry" />
        </mxCell>
        <mxCell id="8oVmEbJe3jED5iUStoZP-19" style="edgeStyle=orthogonalEdgeStyle;rounded=0;orthogonalLoop=1;jettySize=auto;html=1;exitX=0.5;exitY=1;exitDx=0;exitDy=0;entryX=0.5;entryY=0;entryDx=0;entryDy=0;fontFamily=Helvetica;fontSize=12;fontColor=default;" edge="1" parent="1" source="8oVmEbJe3jED5iUStoZP-14" target="8oVmEbJe3jED5iUStoZP-15">
          <mxGeometry relative="1" as="geometry" />
        </mxCell>
        <mxCell id="8oVmEbJe3jED5iUStoZP-14" value="Массовый расход" style="rounded=0;whiteSpace=wrap;html=1;pointerEvents=0;strokeColor=#82b366;align=center;verticalAlign=middle;fontFamily=Times New Roman;fontSize=14;fontColor=default;fillColor=#d5e8d4;gradientColor=none;" vertex="1" parent="1">
          <mxGeometry x="365" y="100" width="145" height="30" as="geometry" />
        </mxCell>
        <mxCell id="8oVmEbJe3jED5iUStoZP-20" style="edgeStyle=orthogonalEdgeStyle;rounded=0;orthogonalLoop=1;jettySize=auto;html=1;exitX=0.5;exitY=1;exitDx=0;exitDy=0;entryX=0.5;entryY=0;entryDx=0;entryDy=0;fontFamily=Helvetica;fontSize=12;fontColor=default;" edge="1" parent="1" source="8oVmEbJe3jED5iUStoZP-15" target="8oVmEbJe3jED5iUStoZP-18">
          <mxGeometry relative="1" as="geometry" />
        </mxCell>
        <mxCell id="8oVmEbJe3jED5iUStoZP-15" value="Термодинамические процессы" style="rounded=0;whiteSpace=wrap;html=1;pointerEvents=0;strokeColor=#82b366;align=center;verticalAlign=middle;fontFamily=Times New Roman;fontSize=14;fontColor=default;fillColor=#d5e8d4;gradientColor=none;" vertex="1" parent="1">
          <mxGeometry x="365" y="160" width="145" height="50" as="geometry" />
        </mxCell>
        <mxCell id="8oVmEbJe3jED5iUStoZP-18" value="Уравнение движения" style="rounded=0;whiteSpace=wrap;html=1;pointerEvents=0;strokeColor=#82b366;align=center;verticalAlign=top;fontFamily=Times New Roman;fontSize=14;fontColor=default;fillColor=#d5e8d4;gradientColor=none;" vertex="1" parent="1">
          <mxGeometry x="365" y="230" width="145" height="30" as="geometry" />
        </mxCell>
        <mxCell id="8oVmEbJe3jED5iUStoZP-21" value="Силовые воздействия" style="rounded=0;whiteSpace=wrap;html=1;pointerEvents=0;strokeColor=#d79b00;align=center;verticalAlign=bottom;fontFamily=Times New Roman;fontSize=14;fillColor=#ffe6cc;labelPosition=center;verticalLabelPosition=top;" vertex="1" parent="1">
          <mxGeometry x="170" y="290" width="150" height="120" as="geometry" />
        </mxCell>
        <mxCell id="8oVmEbJe3jED5iUStoZP-27" style="edgeStyle=orthogonalEdgeStyle;rounded=1;orthogonalLoop=1;jettySize=auto;html=1;exitX=1;exitY=0.5;exitDx=0;exitDy=0;entryX=0;entryY=0.5;entryDx=0;entryDy=0;fontFamily=Helvetica;fontSize=12;fontColor=default;curved=0;" edge="1" parent="1" source="8oVmEbJe3jED5iUStoZP-22" target="8oVmEbJe3jED5iUStoZP-18">
          <mxGeometry relative="1" as="geometry" />
        </mxCell>
        <mxCell id="8oVmEbJe3jED5iUStoZP-22" value="Сила трения" style="rounded=0;whiteSpace=wrap;html=1;pointerEvents=0;strokeColor=#82b366;align=center;verticalAlign=middle;fontFamily=Times New Roman;fontSize=14;fontColor=default;fillColor=#d5e8d4;gradientColor=none;" vertex="1" parent="1">
          <mxGeometry x="185" y="300" width="120" height="30" as="geometry" />
        </mxCell>
        <mxCell id="8oVmEbJe3jED5iUStoZP-28" style="edgeStyle=orthogonalEdgeStyle;rounded=1;orthogonalLoop=1;jettySize=auto;html=1;exitX=1;exitY=0.5;exitDx=0;exitDy=0;entryX=0;entryY=0.5;entryDx=0;entryDy=0;fontFamily=Helvetica;fontSize=12;fontColor=default;curved=0;" edge="1" parent="1" source="8oVmEbJe3jED5iUStoZP-23" target="8oVmEbJe3jED5iUStoZP-18">
          <mxGeometry relative="1" as="geometry" />
        </mxCell>
        <mxCell id="8oVmEbJe3jED5iUStoZP-23" value="Сила реакции упоров" style="rounded=0;whiteSpace=wrap;html=1;pointerEvents=0;strokeColor=#82b366;align=center;verticalAlign=middle;fontFamily=Times New Roman;fontSize=14;fontColor=default;fillColor=#d5e8d4;gradientColor=none;" vertex="1" parent="1">
          <mxGeometry x="185" y="360" width="120" height="40" as="geometry" />
        </mxCell>
        <mxCell id="8oVmEbJe3jED5iUStoZP-30" style="edgeStyle=orthogonalEdgeStyle;rounded=1;orthogonalLoop=1;jettySize=auto;html=1;exitX=1;exitY=0.5;exitDx=0;exitDy=0;entryX=0;entryY=0.25;entryDx=0;entryDy=0;fontFamily=Helvetica;fontSize=12;fontColor=default;curved=0;" edge="1" parent="1" source="Bf2zq5DTblu7-HSpNJ3P-11" target="8oVmEbJe3jED5iUStoZP-9">
          <mxGeometry relative="1" as="geometry">
            <Array as="points">
              <mxPoint x="740" y="295" />
              <mxPoint x="740" y="20" />
              <mxPoint x="140" y="20" />
              <mxPoint x="140" y="125" />
            </Array>
          </mxGeometry>
        </mxCell>
        <mxCell id="8oVmEbJe3jED5iUStoZP-32" style="edgeStyle=orthogonalEdgeStyle;rounded=1;orthogonalLoop=1;jettySize=auto;html=1;exitX=0;exitY=0.5;exitDx=0;exitDy=0;entryX=0.75;entryY=0;entryDx=0;entryDy=0;fontFamily=Helvetica;fontSize=12;fontColor=default;curved=0;" edge="1" parent="1" source="8oVmEbJe3jED5iUStoZP-3" target="8oVmEbJe3jED5iUStoZP-8">
          <mxGeometry relative="1" as="geometry" />
        </mxCell>
        <mxCell id="8oVmEbJe3jED5iUStoZP-33" style="edgeStyle=orthogonalEdgeStyle;rounded=1;orthogonalLoop=1;jettySize=auto;html=1;exitX=0;exitY=0.5;exitDx=0;exitDy=0;entryX=0.75;entryY=0;entryDx=0;entryDy=0;fontFamily=Helvetica;fontSize=12;fontColor=default;curved=0;" edge="1" parent="1" source="8oVmEbJe3jED5iUStoZP-6" target="8oVmEbJe3jED5iUStoZP-8">
          <mxGeometry relative="1" as="geometry" />
        </mxCell>
        <mxCell id="8oVmEbJe3jED5iUStoZP-57" style="edgeStyle=orthogonalEdgeStyle;rounded=0;orthogonalLoop=1;jettySize=auto;html=1;exitX=0.5;exitY=1;exitDx=0;exitDy=0;entryX=0.5;entryY=0;entryDx=0;entryDy=0;fontFamily=Helvetica;fontSize=12;fontColor=default;" edge="1" parent="1" source="8oVmEbJe3jED5iUStoZP-36" target="8oVmEbJe3jED5iUStoZP-56">
          <mxGeometry relative="1" as="geometry" />
        </mxCell>
        <mxCell id="8oVmEbJe3jED5iUStoZP-36" value="АНАЛИЗ РЕЗУЛЬТАТОВ" style="rounded=0;whiteSpace=wrap;html=1;fontSize=14;fontFamily=Times New Roman;labelPosition=center;verticalLabelPosition=top;align=left;verticalAlign=bottom;fillColor=#f8cecc;strokeColor=#b85450;" vertex="1" parent="1">
          <mxGeometry x="160" y="460" width="530" height="90" as="geometry" />
        </mxCell>
        <mxCell id="8oVmEbJe3jED5iUStoZP-26" style="edgeStyle=orthogonalEdgeStyle;rounded=1;orthogonalLoop=1;jettySize=auto;html=1;exitX=0.5;exitY=1;exitDx=0;exitDy=0;entryX=0;entryY=0.5;entryDx=0;entryDy=0;fontFamily=Helvetica;fontSize=12;fontColor=default;curved=0;" edge="1" parent="1" source="8oVmEbJe3jED5iUStoZP-11" target="8oVmEbJe3jED5iUStoZP-14">
          <mxGeometry relative="1" as="geometry" />
        </mxCell>
        <mxCell id="8oVmEbJe3jED5iUStoZP-37" value="" style="group" vertex="1" connectable="0" parent="1">
          <mxGeometry x="170" y="485" width="150" height="55" as="geometry" />
        </mxCell>
        <mxCell id="8oVmEbJe3jED5iUStoZP-38" value="Показатели качества" style="rounded=0;whiteSpace=wrap;html=1;fontSize=14;fontFamily=Times New Roman;labelPosition=center;verticalLabelPosition=top;align=center;verticalAlign=bottom;fillColor=#d5e8d4;strokeColor=#82b366;" vertex="1" parent="8oVmEbJe3jED5iUStoZP-37">
          <mxGeometry width="150" height="55" as="geometry" />
        </mxCell>
        <mxCell id="8oVmEbJe3jED5iUStoZP-39" value="&lt;font face=&quot;Times New Roman&quot;&gt;- Точность&lt;/font&gt;&lt;div&gt;&lt;font face=&quot;Times New Roman&quot;&gt;- Быстродействие&lt;/font&gt;&lt;/div&gt;&lt;div&gt;&lt;font face=&quot;Times New Roman&quot;&gt;- Энергоэффективность&lt;br&gt;&lt;/font&gt;&lt;/div&gt;" style="text;html=1;align=left;verticalAlign=middle;whiteSpace=wrap;rounded=0;fontSize=14;" vertex="1" parent="8oVmEbJe3jED5iUStoZP-37">
          <mxGeometry width="145.1612903225806" height="55" as="geometry" />
        </mxCell>
        <mxCell id="8oVmEbJe3jED5iUStoZP-46" value="" style="group" vertex="1" connectable="0" parent="1">
          <mxGeometry x="510" y="485" width="170" height="55" as="geometry" />
        </mxCell>
        <mxCell id="8oVmEbJe3jED5iUStoZP-47" value="Верификация" style="rounded=0;whiteSpace=wrap;html=1;fontSize=14;fontFamily=Times New Roman;labelPosition=center;verticalLabelPosition=top;align=center;verticalAlign=bottom;fillColor=#d5e8d4;strokeColor=#82b366;" vertex="1" parent="8oVmEbJe3jED5iUStoZP-46">
          <mxGeometry width="170" height="55" as="geometry" />
        </mxCell>
        <mxCell id="8oVmEbJe3jED5iUStoZP-48" value="&lt;div&gt;&lt;font face=&quot;Times New Roman&quot;&gt;- Законы сохранения&lt;/font&gt;&lt;/div&gt;&lt;div&gt;&lt;font face=&quot;Times New Roman&quot;&gt;- Физические ограничения&lt;/font&gt;&lt;/div&gt;" style="text;html=1;align=left;verticalAlign=middle;whiteSpace=wrap;rounded=0;fontSize=14;" vertex="1" parent="8oVmEbJe3jED5iUStoZP-46">
          <mxGeometry width="164.51612903225805" height="55" as="geometry" />
        </mxCell>
        <mxCell id="8oVmEbJe3jED5iUStoZP-52" value="" style="group" vertex="1" connectable="0" parent="1">
          <mxGeometry x="368" y="485" width="91" height="55" as="geometry" />
        </mxCell>
        <mxCell id="8oVmEbJe3jED5iUStoZP-53" value="Визуализация" style="rounded=0;whiteSpace=wrap;html=1;fontSize=14;fontFamily=Times New Roman;labelPosition=center;verticalLabelPosition=top;align=center;verticalAlign=bottom;fillColor=#d5e8d4;strokeColor=#82b366;" vertex="1" parent="8oVmEbJe3jED5iUStoZP-52">
          <mxGeometry width="91" height="55" as="geometry" />
        </mxCell>
        <mxCell id="8oVmEbJe3jED5iUStoZP-54" value="&lt;div&gt;&lt;font face=&quot;Times New Roman&quot;&gt;- Графики&lt;/font&gt;&lt;/div&gt;&lt;div&gt;&lt;font face=&quot;Times New Roman&quot;&gt;- Диаграммы&lt;/font&gt;&lt;/div&gt;" style="text;html=1;align=left;verticalAlign=middle;whiteSpace=wrap;rounded=0;fontSize=14;" vertex="1" parent="8oVmEbJe3jED5iUStoZP-52">
          <mxGeometry width="88.06451612903224" height="55" as="geometry" />
        </mxCell>
        <mxCell id="8oVmEbJe3jED5iUStoZP-56" value="ВЫХОДНЫЕ ДАННЫЕ" style="rounded=0;whiteSpace=wrap;html=1;fontSize=14;fontFamily=Times New Roman;labelPosition=center;verticalLabelPosition=top;align=left;verticalAlign=bottom;fillColor=#dae8fc;strokeColor=#6c8ebf;" vertex="1" parent="1">
          <mxGeometry x="160" y="580" width="530" height="60" as="geometry" />
        </mxCell>
        <mxCell id="8oVmEbJe3jED5iUStoZP-58" value="Траектории движения" style="rounded=0;whiteSpace=wrap;html=1;pointerEvents=0;strokeColor=#82b366;align=center;verticalAlign=middle;fontFamily=Times New Roman;fontSize=14;fontColor=default;fillColor=#d5e8d4;gradientColor=none;" vertex="1" parent="1">
          <mxGeometry x="170" y="590" width="90" height="40" as="geometry" />
        </mxCell>
        <mxCell id="8oVmEbJe3jED5iUStoZP-59" value="Давления в полостях" style="rounded=0;whiteSpace=wrap;html=1;pointerEvents=0;strokeColor=#82b366;align=center;verticalAlign=middle;fontFamily=Times New Roman;fontSize=14;fontColor=default;fillColor=#d5e8d4;gradientColor=none;" vertex="1" parent="1">
          <mxGeometry x="305" y="590" width="90" height="40" as="geometry" />
        </mxCell>
        <mxCell id="8oVmEbJe3jED5iUStoZP-62" value="Температуры в полостях" style="rounded=0;whiteSpace=wrap;html=1;pointerEvents=0;strokeColor=#82b366;align=center;verticalAlign=middle;fontFamily=Times New Roman;fontSize=14;fontColor=default;fillColor=#d5e8d4;gradientColor=none;" vertex="1" parent="1">
          <mxGeometry x="440" y="590" width="90" height="40" as="geometry" />
        </mxCell>
        <mxCell id="8oVmEbJe3jED5iUStoZP-63" value="Показатели эффективности" style="rounded=0;whiteSpace=wrap;html=1;pointerEvents=0;strokeColor=#82b366;align=center;verticalAlign=middle;fontFamily=Times New Roman;fontSize=14;fontColor=default;fillColor=#d5e8d4;gradientColor=none;" vertex="1" parent="1">
          <mxGeometry x="580" y="590" width="100" height="40" as="geometry" />
        </mxCell>
      </root>
    </mxGraphModel>
  </diagram>
</mxfile>
